<svg width="206" height="206" viewBox="0 0 206 206" fill="none" xmlns="http://www.w3.org/2000/svg">
<g clip-path="url(#clip0_6_2)">
<path d="M11.4444 114.444H91.5556V194.556C91.5556 200.877 96.6789 206 103 206C109.321 206 114.444 200.877 114.444 194.556V114.444H194.556C200.877 114.444 206 109.321 206 103C206 96.6789 200.877 91.5556 194.556 91.5556H114.444V11.4444C114.444 5.1233 109.321 0 103 0C96.6789 0 91.5556 5.1233 91.5556 11.4444V91.5556H11.4444C5.1233 91.5556 0 96.6789 0 103C0 109.321 5.1233 114.444 11.4444 114.444Z" fill="white"/>
</g>
<defs>
<clipPath id="clip0_6_2">
<rect width="206" height="206" fill="white"/>
</clipPath>
</defs>
</svg>
