<svg width="292" height="292" viewBox="0 0 292 292" fill="none" xmlns="http://www.w3.org/2000/svg">
<g clip-path="url(#clip0_7_8)">
<mask id="mask0_7_8" style="mask-type:luminance" maskUnits="userSpaceOnUse" x="0" y="0" width="292" height="292">
<path d="M146 0.336006L0.33606 146L146 291.664L291.664 146L146 0.336006Z" fill="white"/>
</mask>
<g mask="url(#mask0_7_8)">
<path d="M89.3526 218.832L146 162.185L202.648 218.832C207.117 223.302 214.362 223.302 218.832 218.832C223.302 214.362 223.302 207.117 218.832 202.648L162.184 146L218.832 89.3523C223.302 84.8826 223.302 77.6376 218.832 73.168C214.362 68.6983 207.117 68.6981 202.648 73.1677L146 129.815L89.3526 73.1683C84.8829 68.6986 77.6377 68.6984 73.1681 73.168C68.6984 77.6377 68.6984 84.8831 73.1681 89.3528L129.815 146L73.1681 202.647C68.6984 207.117 68.6984 214.362 73.1681 218.832C77.6377 223.302 84.8829 223.301 89.3526 218.832Z" fill="white"/>
</g>
</g>
<defs>
<clipPath id="clip0_7_8">
<rect width="206" height="206" fill="white" transform="translate(0.33606 146) rotate(-45)"/>
</clipPath>
</defs>
</svg>
