<svg width="82" height="82" viewBox="0 0 82 82" fill="none" xmlns="http://www.w3.org/2000/svg">
<g clip-path="url(#clip0_37_423)">
<path d="M3.49982 31.625L20.1558 31.625C26.4683 31.625 31.6248 26.5 31.6248 20.156L31.6248 3.5C31.6248 1.7812 30.2186 0.375 28.4998 0.375C26.781 0.375 25.3748 1.7812 25.3748 3.5L25.3748 20.156C25.3748 23.031 23.031 25.3748 20.156 25.3748L3.50001 25.3748C1.78121 25.3748 0.375015 26.781 0.375015 28.4998C0.375015 30.2186 1.78102 31.625 3.49982 31.625Z" fill="white"/>
<path d="M3.50045 56.6254L20.1564 56.6254C23.0314 56.6254 25.3752 58.9692 25.3752 61.8442L25.3752 78.5002C25.3752 80.219 26.7814 81.6252 28.5002 81.6252C30.219 81.6252 31.6252 80.219 31.6252 78.5002L31.6252 61.8442C31.6252 55.5004 26.469 50.3752 20.1562 50.3752L3.50025 50.3752C1.78145 50.3752 0.375249 51.7814 0.375249 53.5002C0.375248 55.219 1.78165 56.6254 3.50045 56.6254Z" fill="white"/>
<path d="M53.5003 81.6246C55.2191 81.6246 56.6253 80.2184 56.6253 78.4996L56.6253 61.8436C56.6253 58.9686 58.9691 56.6248 61.8441 56.6248L78.5001 56.6248C80.2189 56.6248 81.6251 55.2186 81.6251 53.4998C81.6251 51.781 80.2189 50.3748 78.5001 50.3748L61.8441 50.3748C55.5316 50.3748 50.3751 55.4998 50.3751 61.8438L50.3751 78.4998C50.3751 80.2186 51.7815 81.6246 53.5003 81.6246Z" fill="white"/>
<path d="M61.8438 31.6246L78.4998 31.6246C80.2186 31.6246 81.6248 30.2184 81.6248 28.4996C81.6248 26.7808 80.2186 25.3746 78.4998 25.3746L61.8438 25.3746C58.9688 25.3746 56.625 23.0308 56.625 20.1558L56.625 3.49985C56.625 2.6561 56.3125 1.87485 55.7188 1.28105C55.5938 1.1873 55.4688 1.1248 55.3125 1.03105C54.8125 0.656048 54.1875 0.374798 53.5 0.374798C52.8125 0.374798 52.1875 0.656048 51.6562 1.03105C51.5312 1.1248 51.375 1.15605 51.2812 1.28105C51.1875 1.40605 51.125 1.53105 51.0312 1.65605C50.6562 2.1873 50.375 2.81225 50.375 3.49985L50.375 20.1559C50.375 26.4997 55.531 31.6246 61.8438 31.6246Z" fill="white"/>
</g>
<defs>
<clipPath id="clip0_37_423">
<rect width="82" height="82" fill="white"/>
</clipPath>
</defs>
</svg>
