<svg width="90" height="90" viewBox="0 0 90 90" fill="none" xmlns="http://www.w3.org/2000/svg">
<g clip-path="url(#clip0_8_2)">
<path d="M36.5149 73.0303C43.7659 73.0386 50.8534 70.8754 56.864 66.8194L77.9827 87.9382C78.6363 88.5918 79.4124 89.1104 80.2665 89.4641C81.1205 89.8179 82.0359 90 82.9604 90C83.8848 90 84.8002 89.8179 85.6543 89.4641C86.5084 89.1103 87.2844 88.5918 87.9381 87.9381C88.5918 87.2844 89.1103 86.5084 89.4641 85.6543C89.8179 84.8002 90 83.8848 90 82.9604C90 82.0359 89.8179 81.1205 89.4641 80.2665C89.1103 79.4124 88.5918 78.6363 87.9381 77.9827L66.8193 56.8638C71.3554 50.1028 73.5011 42.0195 72.9154 33.8989C72.3296 25.7783 69.046 18.0866 63.5865 12.0466C58.127 6.00666 50.8051 1.96511 42.7848 0.564523C34.7645 -0.836066 26.5062 0.4847 19.3227 4.31684C12.1393 8.14898 6.44309 14.2725 3.13973 21.714C-0.163638 29.1554 -0.884558 37.4875 1.09158 45.3858C3.06772 53.284 7.62749 60.2949 14.046 65.3039C20.4644 70.3129 28.3732 73.0325 36.5149 73.0303ZM36.5149 8.44725C42.0662 8.4472 47.4929 10.0933 52.1087 13.1774C56.7244 16.2615 60.322 20.6451 62.4464 25.7739C64.5709 30.9026 65.1268 36.5462 64.0438 41.9908C62.9608 47.4355 60.2876 52.4367 56.3622 56.3621C52.4368 60.2875 47.4356 62.9607 41.9909 64.0437C36.5463 65.1267 30.9027 64.5709 25.774 62.4465C20.6452 60.3221 16.2616 56.7245 13.1775 52.1087C10.0934 47.493 8.44722 42.0663 8.44725 36.515C8.45567 29.0736 11.4155 21.9393 16.6774 16.6774C21.9392 11.4155 29.0734 8.4557 36.5149 8.44725Z" fill="white"/>
</g>
<defs>
<clipPath id="clip0_8_2">
<rect width="90" height="90" fill="white"/>
</clipPath>
</defs>
</svg>
