<svg width="98" height="92" viewBox="0 0 98 92" fill="none" xmlns="http://www.w3.org/2000/svg">
<g clip-path="url(#clip0_37_388)">
<path fill-rule="evenodd" clip-rule="evenodd" d="M48.285 91.035L20.933 67.492H3.929C1.7493 67.492 -0.0162964 65.7264 -0.0162964 63.5467V28.4527C-0.0162964 26.273 1.7493 24.5074 3.929 24.5074H20.933L48.312 0.94141C49.9604 -0.48049 52.4526 -0.29299 53.8745 1.35547C54.5151 2.10156 54.8315 3.01567 54.8315 3.92967V88.0707C54.8315 90.2504 53.0659 92.016 50.8862 92.016C49.8901 92.016 48.9804 91.6444 48.285 91.035Z" fill="white"/>
<g clip-path="url(#clip1_37_388)">
<path fill-rule="evenodd" clip-rule="evenodd" d="M48.6419 95.9073H34.0801L4.96552 74.0717H-14.3267C-16.4509 74.0717 -18.4881 73.2221 -19.9878 71.7223C-21.4875 70.2226 -22.3372 68.1854 -22.3372 66.0612V27.4833C-22.3372 25.3591 -21.4875 23.322 -19.9878 21.8223C-18.4881 20.3175 -16.4509 19.4728 -14.3267 19.4728H4.96552L34.5348 -2.36801H48.6419V95.9073ZM-11.4138 30.3901V63.1487H4.96552C7.3303 63.1487 9.62851 63.9165 11.5172 65.3344L37.7241 84.9895V8.5545L11.5172 28.2097C9.62851 29.6275 7.3303 30.3902 4.96552 30.3902L-11.4138 30.3901ZM59.5597 19.4723C74.6287 19.4723 86.8621 31.7004 86.8621 46.7694C86.8621 61.8384 74.6288 74.0717 59.5597 74.0717V84.9895C80.6537 84.9895 97.7799 67.8633 97.7799 46.7694C97.7799 25.6807 80.6537 8.5545 59.5597 8.5545V19.4723ZM59.5597 38.1958C64.2944 38.1958 68.1384 42.0398 68.1384 46.7694C68.1384 51.5041 64.2944 55.3481 59.5597 55.3481V66.2659C70.3239 66.2659 79.0563 57.5336 79.0563 46.7693C79.0563 36.0101 70.3241 27.2726 59.5597 27.2726V38.1958Z" fill="white"/>
</g>
</g>
<defs>
<clipPath id="clip0_37_388">
<rect width="98" height="92" fill="white"/>
</clipPath>
<clipPath id="clip1_37_388">
<rect width="38" height="76" fill="white" transform="translate(60 9)"/>
</clipPath>
</defs>
</svg>
